
<svg width="800" height="600" viewBox="0 0 800 600" fill="none" xmlns="http://www.w3.org/2000/svg">
  <rect width="800" height="600" rx="12" fill="#F9FAFB"/>
  <rect x="50" y="50" width="700" height="500" rx="8" fill="white" stroke="#E5E7EB"/>
  <rect x="100" y="100" width="250" height="40" rx="4" fill="#EEF2FF"/>
  <rect x="100" y="160" width="400" height="20" rx="4" fill="#E0E7FF"/>
  <rect x="100" y="190" width="350" height="20" rx="4" fill="#E0E7FF"/>
  <rect x="100" y="220" width="300" height="20" rx="4" fill="#E0E7FF"/>
  <rect x="100" y="280" width="140" height="50" rx="25" fill="#4F46E5"/>
  <rect x="260" y="280" width="140" height="50" rx="25" fill="white" stroke="#4F46E5"/>
  <rect x="500" y="100" width="200" height="200" rx="8" fill="#EEF2FF"/>
  <circle cx="600" cy="200" r="60" fill="#818CF8"/>
  <rect x="550" y="320" width="100" height="10" rx="2" fill="#E0E7FF"/>
  <rect x="530" y="340" width="140" height="10" rx="2" fill="#E0E7FF"/>
  <rect x="100" y="380" width="200" height="120" rx="8" fill="#F3F4F6"/>
  <circle cx="130" cy="410" r="15" fill="#6366F1"/>
  <rect x="155" y="400" width="120" height="10" rx="2" fill="#9CA3AF"/>
  <rect x="155" y="420" width="100" height="10" rx="2" fill="#D1D5DB"/>
  <rect x="320" y="380" width="200" height="120" rx="8" fill="#F3F4F6"/>
  <circle cx="350" cy="410" r="15" fill="#6366F1"/>
  <rect x="375" y="400" width="120" height="10" rx="2" fill="#9CA3AF"/>
  <rect x="375" y="420" width="100" height="10" rx="2" fill="#D1D5DB"/>
  <rect x="540" y="380" width="200" height="120" rx="8" fill="#F3F4F6"/>
  <circle cx="570" cy="410" r="15" fill="#6366F1"/>
  <rect x="595" y="400" width="120" height="10" rx="2" fill="#9CA3AF"/>
  <rect x="595" y="420" width="100" height="10" rx="2" fill="#D1D5DB"/>
</svg>
